<?xml version="1.0" encoding="UTF-8"?>
<svg width="22px" height="22px" viewBox="0 0 22 22" version="1.1" xmlns="http://www.w3.org/2000/svg" xmlns:xlink="http://www.w3.org/1999/xlink">
    <title>icon-edit 2</title>
    <g id="Page-1" stroke="none" stroke-width="1" fill="none" fill-rule="evenodd">
        <g id="icon-edit" transform="translate(1.000000, 1.000000)" fill="#5C5C5C" fill-rule="nonzero">
            <path d="M7.34,1 C7.89228475,1 8.34,1.44771525 8.34,2 C8.34,2.51283584 7.95395981,2.93550716 7.45662113,2.99327227 L7.34,3 L2,3 C1.73480249,3 1.48046051,3.10535306 1.29290678,3.29290678 C1.13661201,3.44920155 1.03740104,3.65187706 1.00867223,3.86856482 L1,4 L1,18 C1,18.2651975 1.10535306,18.5195395 1.29290678,18.7070932 C1.44920155,18.863388 1.65187706,18.962599 1.86856482,18.9913278 L2,19 L16,19 C16.2651975,19 16.5195395,18.8946469 16.7070932,18.7070932 C16.863388,18.5507984 16.962599,18.3481229 16.9913278,18.1314352 L17,18 L17,12.66 C17,12.1077153 17.4477153,11.66 18,11.66 C18.5128358,11.66 18.9355072,12.0460402 18.9932723,12.5433789 L19,12.66 L19,18 C19,18.7956333 18.6839313,19.5586823 18.1213068,20.1213068 C17.6055676,20.6370459 16.9214163,20.9456097 16.1981324,20.9934555 L16,21 L2,21 C1.20436672,21 0.441317726,20.6839313 -0.121306781,20.1213068 C-0.637045913,19.6055676 -0.945609688,18.9214163 -0.993455463,18.1981324 L-1,18 L-1,4 C-1,3.20436672 -0.683931289,2.44131773 -0.121306781,1.87869322 C0.394432351,1.36295409 1.07858373,1.05439031 1.80186765,1.00654454 L2,1 L7.34,1 Z" id="Path"></path>
            <path d="M15.2928932,-0.707106781 L5.29289322,9.29289322 C5.10535684,9.4804296 5,9.73478351 5,10 L5,14 C5,14.5522847 5.44771525,15 6,15 L10,15 C10.2652165,15 10.5195704,14.8946432 10.7071068,14.7071068 L20.7071068,4.70710678 C21.0976311,4.31658249 21.0976311,3.68341751 20.7071068,3.29289322 L16.7071068,-0.707106781 C16.3165825,-1.09763107 15.6834175,-1.09763107 15.2928932,-0.707106781 Z M16,1.415 L18.585,4 L9.584,13 L7,13 L7,10.414 L16,1.415 Z" id="Path"></path>
        </g>
    </g>
</svg>