<svg aria-hidden="true" style="position: absolute; width: 0; height: 0; overflow: hidden;" version="1.1" xmlns="http://www.w3.org/2000/svg" xmlns:xlink="http://www.w3.org/1999/xlink">
<defs>
<symbol id="icon-icon-edit2" viewBox="0 0 32 32">
<path fill="#5c5c5c" style="fill: var(--color1, #5c5c5c)" d="M12.131 2.909c0.803 0 1.455 0.651 1.455 1.455 0 0.746-0.562 1.361-1.285 1.445l-0.17 0.010h-7.767c-0.386 0-0.756 0.153-1.029 0.426-0.227 0.227-0.372 0.522-0.413 0.837l-0.013 0.191v20.364c0 0.386 0.153 0.756 0.426 1.029 0.227 0.227 0.522 0.372 0.837 0.413l0.191 0.013h20.364c0.386 0 0.756-0.153 1.029-0.426 0.227-0.227 0.372-0.522 0.413-0.837l0.013-0.191v-7.767c0-0.803 0.651-1.455 1.455-1.455 0.746 0 1.361 0.561 1.445 1.285l0.010 0.17v7.767c0 1.157-0.46 2.267-1.278 3.086-0.75 0.75-1.745 1.199-2.797 1.269l-0.288 0.010h-20.364c-1.157 0-2.267-0.46-3.086-1.278-0.75-0.75-1.199-1.745-1.269-2.797l-0.010-0.288v-20.364c0-1.157 0.46-2.267 1.278-3.086 0.75-0.75 1.745-1.199 2.797-1.269l0.288-0.010h7.767z"></path>
<path fill="#5c5c5c" style="fill: var(--color1, #5c5c5c)" d="M23.699 0.426l-14.545 14.545c-0.273 0.273-0.426 0.643-0.426 1.029v5.818c0 0.803 0.651 1.455 1.455 1.455h5.818c0.386 0 0.756-0.153 1.029-0.426l14.545-14.545c0.568-0.568 0.568-1.489 0-2.057l-5.818-5.818c-0.568-0.568-1.489-0.568-2.057 0zM24.727 3.513l3.76 3.76-13.092 13.091h-3.759v-3.761l13.091-13.089z"></path>
</symbol>
</defs>
</svg>
